<svg width="16" height="16" viewBox="0 0 16 16" fill="none" xmlns="http://www.w3.org/2000/svg">
<g clip-path="url(#clip0_1_354)">
<path d="M2.00001 6.66667H1.33334V2.66867C1.33334 2.29933 1.63668 2 1.99468 2H14.0053C14.0929 1.99982 14.1795 2.01704 14.2603 2.05067C14.3411 2.0843 14.4144 2.13366 14.476 2.19589C14.5375 2.25812 14.5861 2.33196 14.6188 2.41313C14.6516 2.49429 14.6678 2.58116 14.6667 2.66867V6.66667H14V13.334C14.0003 13.4212 13.9834 13.5076 13.9502 13.5883C13.9171 13.6689 13.8684 13.7423 13.8069 13.8041C13.7455 13.866 13.6724 13.9151 13.592 13.9487C13.5115 13.9823 13.4252 13.9997 13.338 14H2.66201C2.57481 13.9997 2.48852 13.9823 2.40806 13.9487C2.3276 13.9151 2.25455 13.866 2.19308 13.8041C2.1316 13.7423 2.08291 13.6689 2.04979 13.5883C2.01666 13.5076 1.99975 13.4212 2.00001 13.334V6.66667ZM12.6667 6.66667H3.33334V12.6667H12.6667V6.66667ZM2.66668 3.33333V5.33333H13.3333V3.33333H2.66668ZM6.00001 8H10V9.33333H6.00001V8Z" fill="#4E4E69"/>
</g>
<defs>
<clipPath id="clip0_1_354">
<rect width="16" height="16" fill="white"/>
</clipPath>
</defs>
</svg>
