<svg width="20" height="22" viewBox="0 0 20 22" fill="none" xmlns="http://www.w3.org/2000/svg">
<path d="M0.859023 1.877L13.429 0.0820015C13.5 0.0718249 13.5723 0.0770173 13.641 0.0972267C13.7098 0.117436 13.7734 0.15219 13.8275 0.199134C13.8817 0.246078 13.9251 0.304114 13.9549 0.369309C13.9846 0.434504 14 0.505335 14 0.577002V21.423C14 21.4946 13.9846 21.5653 13.9549 21.6304C13.9252 21.6955 13.8819 21.7535 13.8279 21.8004C13.7738 21.8474 13.7103 21.8821 13.6417 21.9024C13.5731 21.9227 13.5009 21.928 13.43 21.918L0.858024 20.123C0.619642 20.0891 0.401516 19.9702 0.243712 19.7884C0.0859086 19.6065 -0.000974252 19.3738 -0.000976562 19.133V2.867C-0.000974252 2.62621 0.0859086 2.39351 0.243712 2.21164C0.401516 2.02978 0.620642 1.91095 0.859023 1.877ZM2.00002 3.735V18.265L12 19.694V2.306L2.00002 3.735ZM15 18H18V4H15V2H19C19.2652 2 19.5196 2.10536 19.7071 2.29289C19.8947 2.48043 20 2.73478 20 3V19C20 19.2652 19.8947 19.5196 19.7071 19.7071C19.5196 19.8946 19.2652 20 19 20H15V18ZM8.20002 11L11 15H8.60002L7.00002 12.714L5.40002 15H3.00002L5.80002 11L3.00002 7H5.40002L7.00002 9.286L8.60002 7H11L8.20002 11Z" fill="#4E4E69"/>
</svg>
