<svg width="16" height="16" viewBox="0 0 16 16" fill="none" xmlns="http://www.w3.org/2000/svg">
<g clip-path="url(#clip0_1_344)">
<path d="M11.3333 3.99999H14.6667V5.33333H13.3333V14C13.3333 14.1768 13.2631 14.3464 13.1381 14.4714C13.0131 14.5964 12.8435 14.6667 12.6667 14.6667H3.33334C3.15653 14.6667 2.98696 14.5964 2.86194 14.4714C2.73691 14.3464 2.66668 14.1768 2.66668 14V5.33333H1.33334V3.99999H4.66668V1.99999C4.66668 1.82318 4.73691 1.65361 4.86194 1.52859C4.98696 1.40357 5.15653 1.33333 5.33334 1.33333H10.6667C10.8435 1.33333 11.0131 1.40357 11.1381 1.52859C11.2631 1.65361 11.3333 1.82318 11.3333 1.99999V3.99999ZM12 5.33333H4.00001V13.3333H12V5.33333ZM8.94268 9.33333L10.1213 10.512L9.17868 11.4547L8.00001 10.276L6.82134 11.4547L5.87868 10.512L7.05734 9.33333L5.87868 8.15466L6.82134 7.21199L8.00001 8.39066L9.17868 7.21199L10.1213 8.15466L8.94268 9.33333ZM6.00001 2.66666V3.99999H10V2.66666H6.00001Z" fill="#4E4E69"/>
</g>
<defs>
<clipPath id="clip0_1_344">
<rect width="16" height="16" fill="white"/>
</clipPath>
</defs>
</svg>
